<?xml version="1.0" standalone="no"?>
<!DOCTYPE svg PUBLIC "-//W3C//DTD SVG 20010904//EN"
 "http://www.w3.org/TR/2001/REC-SVG-20010904/DTD/svg10.dtd">
<svg version="1.0" xmlns="http://www.w3.org/2000/svg"
 width="522.000000pt" height="523.000000pt" viewBox="0 0 522.000000 523.000000"
 preserveAspectRatio="xMidYMid meet">

<g transform="translate(0.000000,523.000000) scale(0.100000,-0.100000)"
fill="#000000" stroke="none">
<path d="M1855 4355 c-356 -56 -663 -288 -812 -614 -125 -272 -122 -632 6
-907 118 -251 332 -452 592 -556 269 -108 577 -95 838 35 47 23 88 43 92 45 3
1 12 -12 20 -30 21 -51 79 -109 134 -134 l50 -24 595 0 c577 0 596 1 640 21
55 25 105 71 133 124 22 40 22 42 25 824 3 863 4 849 -58 923 -16 20 -53 48
-82 62 -43 22 -66 26 -135 26 l-83 0 0 33 c0 17 -9 47 -20 65 -17 27 -25 32
-59 32 -50 0 -71 -26 -71 -87 l0 -43 -105 0 -105 0 0 41 c0 52 -13 74 -50 88
-61 21 -100 -14 -100 -88 l0 -41 -105 0 -105 0 0 45 c0 55 -25 85 -72 85 -18
0 -38 -4 -44 -8 -19 -13 -34 -50 -34 -86 l0 -36 -90 0 c-57 0 -104 -5 -126
-15 -35 -14 -35 -14 -97 31 -128 95 -298 164 -467 189 -112 17 -195 17 -305 0z
m399 -194 c91 -27 187 -72 264 -124 50 -33 62 -46 58 -62 -3 -11 -6 -331 -6
-711 l0 -692 -63 -41 c-153 -99 -276 -140 -448 -148 -351 -17 -670 172 -833
493 -115 227 -132 496 -45 732 103 283 351 501 643 568 92 21 340 12 430 -15z
m686 -209 c4 -51 10 -68 29 -83 32 -26 67 -24 96 6 21 20 25 34 25 85 l0 60
105 0 105 0 -2 -59 c-4 -74 16 -101 74 -101 58 0 78 26 78 100 l0 60 100 0
100 0 0 -49 c0 -27 4 -61 10 -75 19 -52 88 -59 130 -14 15 17 20 35 20 80 l0
58 64 0 c70 0 120 -25 143 -70 10 -19 13 -198 13 -788 0 -855 4 -804 -72 -843
-35 -18 -66 -19 -588 -19 -532 0 -552 1 -590 20 -76 39 -72 -9 -72 851 0 694
2 769 17 792 26 40 72 57 145 54 l65 -2 5 -63z"/>
<path d="M1972 4008 c-9 -9 -12 -83 -12 -299 0 -227 -3 -288 -13 -292 -7 -3
-90 42 -185 100 -153 94 -175 104 -199 96 -34 -12 -51 -52 -36 -85 6 -15 74
-62 176 -123 159 -96 165 -101 171 -137 4 -24 19 -50 41 -72 59 -60 140 -60
200 -1 57 57 56 136 -2 197 l-26 27 2 273 c2 313 0 321 -64 326 -23 2 -46 -3
-53 -10z"/>
<path d="M1242 3318 c-15 -15 -15 -61 0 -76 20 -20 76 -15 88 7 14 27 13 47
-6 65 -18 19 -65 21 -82 4z"/>
<path d="M1978 2619 c-24 -13 -23 -61 0 -82 38 -35 92 -8 92 46 0 40 -51 60
-92 36z"/>
<path d="M2905 3576 c-11 -8 -18 -26 -18 -46 0 -61 -8 -60 477 -60 243 0 446
4 452 8 6 4 16 17 23 30 12 23 1 58 -23 74 -6 4 -209 8 -452 8 -355 0 -444 -3
-459 -14z"/>
<path d="M2907 3242 c-21 -23 -22 -66 -1 -86 14 -14 70 -16 464 -16 l449 0 15
22 c21 30 20 54 -4 78 -19 19 -33 20 -463 20 -417 0 -445 -1 -460 -18z"/>
<path d="M2901 2904 c-27 -34 -26 -50 4 -79 l24 -25 306 0 306 0 24 25 c30 29
32 58 5 85 -19 19 -33 20 -334 20 l-315 0 -20 -26z"/>
<path d="M1975 1796 c-75 -33 -105 -104 -105 -245 0 -152 27 -217 104 -252 98
-44 220 -12 266 71 23 41 25 55 25 170 0 69 -3 137 -7 152 -11 39 -55 87 -95
103 -44 18 -148 19 -188 1z m140 -82 c35 -14 49 -64 49 -171 -1 -110 -13 -144
-59 -165 -37 -17 -93 -2 -109 30 -37 72 -31 248 9 288 24 24 73 32 110 18z"/>
<path d="M2895 1791 c-76 -47 -95 -96 -95 -248 0 -137 15 -183 73 -227 64 -49
189 -48 248 1 55 47 69 92 69 234 0 112 -2 131 -23 169 -32 61 -89 90 -176 90
-47 0 -75 -5 -96 -19z m147 -82 c32 -17 48 -71 48 -164 0 -136 -33 -186 -114
-171 -60 11 -71 40 -71 179 0 118 0 119 28 143 30 26 75 31 109 13z"/>
<path d="M767 1793 c-6 -10 -157 -488 -157 -496 0 -4 22 -7 50 -7 l49 0 14 48
14 47 84 0 83 0 14 -47 13 -48 51 0 c60 0 62 -22 -17 225 -32 99 -65 204 -74
233 l-16 52 -52 0 c-28 0 -54 -3 -56 -7z m77 -215 c10 -40 21 -79 23 -85 4
-10 -9 -13 -47 -13 -38 0 -51 3 -47 13 2 6 13 45 23 85 10 39 21 72 24 72 3 0
14 -33 24 -72z"/>
<path d="M1062 1592 l3 -209 27 -35 c41 -53 88 -71 169 -66 55 4 76 11 105 33
58 45 64 70 64 290 l0 195 -50 0 -50 0 -1 -172 c0 -206 -8 -239 -59 -251 -53
-13 -87 4 -99 50 -6 21 -11 113 -11 206 l0 167 -51 0 -50 0 3 -208z"/>
<path d="M1480 1755 l0 -45 65 0 65 0 0 -210 0 -210 55 0 55 0 0 210 0 209 58
3 57 3 3 43 3 42 -180 0 -181 0 0 -45z"/>
<path d="M2340 1545 l0 -255 50 0 50 0 1 168 0 167 85 -167 84 -168 55 0 55 0
0 255 0 255 -50 0 -50 0 -1 -167 0 -168 -85 168 -84 167 -55 0 -55 0 0 -255z"/>
<path d="M3270 1545 l0 -255 50 0 50 0 2 168 3 167 45 -122 44 -123 41 0 40 0
36 98 c20 53 41 106 45 117 6 13 10 -40 12 -142 l2 -163 45 0 44 0 3 255 3
255 -53 0 c-61 0 -55 9 -127 -188 -20 -56 -40 -104 -44 -106 -3 -2 -33 63 -65
145 l-59 149 -59 0 -58 0 0 -255z"/>
<path d="M3955 1788 c-5 -13 -100 -309 -136 -423 -10 -33 -19 -64 -19 -68 0
-4 21 -7 47 -5 46 3 46 3 60 51 l14 47 83 0 84 0 13 -50 13 -50 49 0 c35 0 48
4 44 13 -2 6 -30 93 -61 192 -32 99 -67 208 -78 243 l-20 62 -44 0 c-27 0 -46
-5 -49 -12z m74 -215 c11 -45 21 -85 21 -88 0 -3 -22 -5 -49 -5 l-50 0 20 73
c27 99 30 109 34 105 1 -2 12 -40 24 -85z"/>
<path d="M4240 1792 c0 -4 4 -12 9 -17 15 -16 121 -221 121 -234 0 -7 -29 -63
-65 -126 -36 -63 -65 -117 -65 -120 0 -3 24 -5 53 -5 l52 0 43 80 c24 44 45
80 47 80 2 0 18 -29 36 -63 50 -99 49 -98 112 -95 l55 3 -73 125 -73 125 23
40 c41 71 115 207 115 212 0 2 -25 3 -56 1 l-56 -3 -39 -74 c-21 -40 -40 -76
-43 -78 -3 -3 -23 31 -45 76 l-41 81 -55 0 c-30 0 -55 -4 -55 -8z"/>
</g>
</svg>
