<svg width="113" height="104" viewBox="0 0 113 104" fill="none" xmlns="http://www.w3.org/2000/svg">
<path d="M40.8434 0C51.5656 0 61.3212 3.8982 68.6082 10.2716H68.0723C66.0345 10.2716 64.2065 11.1165 62.9588 12.4546C56.8999 7.87609 49.2115 5.1358 40.8434 5.1358C21.2938 5.1358 5.44578 20.0818 5.44578 38.5185C5.44578 56.9553 21.2938 71.9012 40.8434 71.9012C48.4496 71.9012 55.4948 69.6378 61.2651 65.7875V68.0494C61.2651 69.2521 61.6162 70.3773 62.2264 71.3395C56.0065 74.9513 48.6837 77.037 40.8434 77.037C18.2863 77.037 0 59.7917 0 38.5185C0 17.2454 18.2863 0 40.8434 0Z" fill="black"/>
<path d="M42.2048 16.0494C42.2048 14.9857 41.2905 14.1234 40.1627 14.1234C39.0348 14.1234 38.1205 14.9857 38.1205 16.0494V39.1605C38.1205 40.2241 39.0348 41.0864 40.1627 41.0864C41.2905 41.0864 42.2048 40.2241 42.2048 39.1605V16.0494Z" fill="black"/>
<path d="M31.2288 30.6243C30.3003 30.0204 29.0286 30.2407 28.3883 31.1164C27.748 31.992 27.9816 33.1914 28.9101 33.7952L39.6192 40.7599C40.5477 41.3638 41.8194 41.1435 42.4597 40.2678C43.1 39.3922 42.8664 38.1928 41.9379 37.589L31.2288 30.6243Z" fill="black"/>
<path d="M39.4819 42.3704C41.7376 42.3704 43.5663 40.6458 43.5663 38.5185C43.5663 36.3912 41.7376 34.6667 39.4819 34.6667C37.2262 34.6667 35.3976 36.3912 35.3976 38.5185C35.3976 40.6458 37.2262 42.3704 39.4819 42.3704Z" fill="black"/>
<path d="M11.5723 41.0864C12.7002 41.0864 13.6145 40.2241 13.6145 39.1605C13.6145 38.0968 12.7002 37.2346 11.5723 37.2346C10.4445 37.2346 9.53015 38.0968 9.53015 39.1605C9.53015 40.2241 10.4445 41.0864 11.5723 41.0864Z" fill="black"/>
<path d="M40.1627 68.0494C41.2905 68.0494 42.2048 67.1871 42.2048 66.1235C42.2048 65.0598 41.2905 64.1975 40.1627 64.1975C39.0348 64.1975 38.1205 65.0598 38.1205 66.1235C38.1205 67.1871 39.0348 68.0494 40.1627 68.0494Z" fill="black"/>
<path d="M102.108 10.9136H65.3494C62.7177 10.9136 60.5844 12.9255 60.5844 15.4074V66.7654C60.5844 69.2473 62.7177 71.2593 65.3494 71.2593H102.108C104.74 71.2593 106.874 69.2473 106.874 66.7654V15.4074C106.874 12.9255 104.74 10.9136 102.108 10.9136Z" stroke="black" stroke-width="3"/>
<path d="M76.241 7.06173C76.241 5.99807 75.3266 5.1358 74.1988 5.1358C73.0709 5.1358 72.1566 5.99807 72.1566 7.06173V16.0494C72.1566 17.113 73.0709 17.9753 74.1988 17.9753C75.3266 17.9753 76.241 17.113 76.241 16.0494V7.06173Z" fill="black"/>
<path d="M85.7711 7.06173C85.7711 5.99807 84.8568 5.1358 83.7289 5.1358C82.6011 5.1358 81.6868 5.99807 81.6868 7.06173V16.0494C81.6868 17.113 82.6011 17.9753 83.7289 17.9753C84.8568 17.9753 85.7711 17.113 85.7711 16.0494V7.06173Z" fill="black"/>
<path d="M95.3012 7.06173C95.3012 5.99807 94.3869 5.1358 93.259 5.1358C92.1312 5.1358 91.2169 5.99807 91.2169 7.06173V16.0494C91.2169 17.113 92.1312 17.9753 93.259 17.9753C94.3869 17.9753 95.3012 17.113 95.3012 16.0494V7.06173Z" fill="black"/>
<path d="M95.9819 32.0988C97.1098 32.0988 98.0241 31.2365 98.0241 30.1728C98.0241 29.1092 97.1098 28.2469 95.9819 28.2469H70.1145C68.9866 28.2469 68.0723 29.1092 68.0723 30.1728C68.0723 31.2365 68.9866 32.0988 70.1145 32.0988H95.9819Z" fill="black"/>
<path d="M95.9819 41.0864C97.1098 41.0864 98.0241 40.2241 98.0241 39.1605C98.0241 38.0968 97.1098 37.2346 95.9819 37.2346H70.1145C68.9866 37.2346 68.0723 38.0968 68.0723 39.1605C68.0723 40.2241 68.9866 41.0864 70.1145 41.0864H95.9819Z" fill="black"/>
<path d="M86.4518 50.0741C87.5796 50.0741 88.494 49.2118 88.494 48.1482C88.494 47.0845 87.5796 46.2222 86.4518 46.2222H70.1144C68.9866 46.2222 68.0723 47.0845 68.0723 48.1482C68.0723 49.2118 68.9866 50.0741 70.1144 50.0741H86.4518Z" fill="black"/>
<path d="M3.42101 100.148H0.729065L4.83081 88.9427H8.06811L12.1641 100.148H9.47211L6.49588 91.5033H6.40304L3.42101 100.148ZM3.25276 95.7437H9.61134V97.593H3.25276V95.7437ZM20.9332 88.9427H23.4453V96.2196C23.4453 97.0368 23.2384 97.7517 22.8245 98.3645C22.4146 98.9773 21.8402 99.4551 21.1015 99.798C20.3627 100.137 19.5022 100.307 18.5197 100.307C17.5335 100.307 16.6709 100.137 15.9322 99.798C15.1935 99.4551 14.6191 98.9773 14.2091 98.3645C13.7992 97.7517 13.5942 97.0368 13.5942 96.2196V88.9427H16.1063V96.0173C16.1063 96.4441 16.2049 96.8234 16.4021 97.1553C16.6032 97.4873 16.8856 97.7481 17.2491 97.9377C17.6127 98.1273 18.0363 98.2222 18.5197 98.2222C19.007 98.2222 19.4305 98.1273 19.7902 97.9377C20.1539 97.7481 20.4342 97.4873 20.6315 97.1553C20.8326 96.8234 20.9332 96.4441 20.9332 96.0173V88.9427ZM25.0596 90.896V88.9427H34.8179V90.896H31.1802V100.148H28.6972V90.896H25.0596ZM46.8012 94.5455C46.8012 95.7674 46.5556 96.8069 46.0644 97.6641C45.577 98.5214 44.9118 99.1761 44.0686 99.6284C43.2293 100.077 42.2855 100.301 41.2374 100.301C40.1814 100.301 39.2339 100.075 38.3945 99.6229C37.5553 99.1705 36.892 98.5159 36.4046 97.6587C35.9173 96.8015 35.6737 95.7637 35.6737 94.5455C35.6737 93.3236 35.9173 92.284 36.4046 91.4268C36.892 90.5696 37.5553 89.9166 38.3945 89.468C39.2339 89.0157 40.1814 88.7896 41.2374 88.7896C42.2855 88.7896 43.2293 89.0157 44.0686 89.468C44.9118 89.9166 45.577 90.5696 46.0644 91.4268C46.5556 92.284 46.8012 93.3236 46.8012 94.5455ZM44.2542 94.5455C44.2542 93.7539 44.1285 93.0864 43.8771 92.5429C43.6296 91.9994 43.2795 91.5873 42.827 91.3064C42.3745 91.0256 41.8446 90.8851 41.2374 90.8851C40.6302 90.8851 40.1003 91.0256 39.6477 91.3064C39.1952 91.5873 38.8433 91.9994 38.5918 92.5429C38.3443 93.0864 38.2205 93.7539 38.2205 94.5455C38.2205 95.3369 38.3443 96.0045 38.5918 96.548C38.8433 97.0914 39.1952 97.5036 39.6477 97.7845C40.1003 98.0653 40.6302 98.2058 41.2374 98.2058C41.8446 98.2058 42.3745 98.0653 42.827 97.7845C43.2795 97.5036 43.6296 97.0914 43.8771 96.548C44.1285 96.0045 44.2542 95.3369 44.2542 94.5455ZM58.6002 88.9427V100.148H56.4304L51.2612 93.0955H51.1742V100.148H48.662V88.9427H50.8666L55.9953 95.9899H56.0997V88.9427H58.6002ZM71.5943 94.5455C71.5943 95.7674 71.3487 96.8069 70.8575 97.6641C70.3703 98.5214 69.7049 99.1761 68.8618 99.6284C68.0225 100.077 67.0787 100.301 66.0307 100.301C64.9747 100.301 64.0272 100.075 63.1878 99.6229C62.3485 99.1705 61.6852 98.5159 61.1978 97.6587C60.7105 96.8015 60.4668 95.7637 60.4668 94.5455C60.4668 93.3236 60.7105 92.284 61.1978 91.4268C61.6852 90.5696 62.3485 89.9166 63.1878 89.468C64.0272 89.0157 64.9747 88.7896 66.0307 88.7896C67.0787 88.7896 68.0225 89.0157 68.8618 89.468C69.7049 89.9166 70.3703 90.5696 70.8575 91.4268C71.3487 92.284 71.5943 93.3236 71.5943 94.5455ZM69.0475 94.5455C69.0475 93.7539 68.9217 93.0864 68.6704 92.5429C68.4229 91.9994 68.0728 91.5873 67.6203 91.3064C67.1677 91.0256 66.6379 90.8851 66.0307 90.8851C65.4233 90.8851 64.8934 91.0256 64.4409 91.3064C63.9885 91.5873 63.6364 91.9994 63.3851 92.5429C63.1376 93.0864 63.0137 93.7539 63.0137 94.5455C63.0137 95.3369 63.1376 96.0045 63.3851 96.548C63.6364 97.0914 63.9885 97.5036 64.4409 97.7845C64.8934 98.0653 65.4233 98.2058 66.0307 98.2058C66.6379 98.2058 67.1677 98.0653 67.6203 97.7845C68.0728 97.5036 68.4229 97.0914 68.6704 96.548C68.9217 96.0045 69.0475 95.3369 69.0475 94.5455Z" fill="black"/>
<path d="M73.4552 88.9427H76.5533L79.8254 96.4714H79.9647L83.2368 88.9427H86.3349V100.148H83.8982V92.8548H83.7995L80.7246 100.093H79.0654L75.9906 92.8274H75.8919V100.148H73.4552V88.9427ZM90.4526 100.148H87.7606L91.8624 88.9427H95.0996L99.1955 100.148H96.5037L93.5274 91.5033H93.4346L90.4526 100.148ZM90.2843 95.7437H96.6428V97.593H90.2843V95.7437ZM102.981 88.9427L105.377 92.7618H105.47L107.878 88.9427H110.715L107.089 94.5455L110.796 100.148H107.907L105.47 96.3236H105.377L102.941 100.148H100.063L103.782 94.5455L100.133 88.9427H102.981Z" fill="#1B8039"/>
</svg>
